<svg version="1.1" xmlns="http://www.w3.org/2000/svg" xmlns:xlink="http://www.w3.org/1999/xlink" width="120" height="52.287" viewBox="0,0,120,52.287"><defs><linearGradient x1="142.5" y1="270" x2="262.5" y2="270" gradientUnits="userSpaceOnUse" id="color-1"><stop offset="0" stop-color="#000000"/><stop offset="1" stop-color="#00b70c"/></linearGradient><linearGradient x1="147.0025" y1="270.0002" x2="257.9957" y2="270.0002" gradientUnits="userSpaceOnUse" id="color-2"><stop offset="0" stop-color="#000000"/><stop offset="1" stop-color="#00ff12"/></linearGradient></defs><g transform="translate(-142.5,-243.8565)"><g stroke="none" stroke-miterlimit="10"><g stroke-width="1"><path d="M262.5,269.9995c0,14.416 -11.729,26.144 -26.144,26.144h-67.713c-14.415,0 -26.143,-11.727 -26.143,-26.144c0,-14.415 11.727,-26.143 26.143,-26.143h67.713c14.415,0 26.144,11.728 26.144,26.143z" fill="url(#color-1)"/><path d="M257.996,269.9995c0,11.952 -9.688,21.641 -21.64,21.641h-67.713c-11.952,0 -21.641,-9.689 -21.641,-21.641v0c0,-11.951 9.689,-21.64 21.641,-21.64h67.713c11.952,0 21.64,9.689 21.64,21.64z" fill="url(#color-2)"/></g><path d="M214.80952,270c0,-11.90042 9.6472,-21.54762 21.54762,-21.54762c11.90042,0 21.54762,9.6472 21.54762,21.54762c0,11.90042 -9.6472,21.54762 -21.54762,21.54762c-11.90042,0 -21.54762,-9.6472 -21.54762,-21.54762z" fill="#00ff11" stroke-width="0"/></g></g></svg>