<svg version="1.1" xmlns="http://www.w3.org/2000/svg" xmlns:xlink="http://www.w3.org/1999/xlink" width="220.55161" height="220.55132" viewBox="0,0,220.55161,220.55132"><g transform="translate(-92.73207,-159.50416)"><g stroke="#000000" stroke-miterlimit="10"><path d="M312.58872,299.52901l-219.16198,-59.49894" fill="none" stroke-width="1" stroke-linecap="round" stroke-linejoin="round"/><path d="M122.98166,189.22595l160.05226,161.10727" fill="none" stroke-width="1" stroke-linecap="round" stroke-linejoin="round"/><path d="M173.98129,160.00417l58.05345,219.55131" fill="none" stroke-width="1" stroke-linecap="round" stroke-linejoin="round"/><path d="M232.7572,160.19797l-59.49923,219.16227" fill="none" stroke-width="1" stroke-linecap="round" stroke-linejoin="round"/><path d="M283.56143,189.75278l-161.10768,160.05266" fill="none" stroke-width="1" stroke-linecap="round" stroke-linejoin="round"/><path d="M93.23208,298.80568l219.55159,-58.05374" fill="none" stroke-width="1" stroke-linecap="round" stroke-linejoin="round"/><path d="M93.42674,240.03006l-0.19467,58.77562" fill="none" stroke-width="1" stroke-linecap="round" stroke-linejoin="round"/><path d="M122.98166,189.22595l-29.55493,50.80411" fill="none" stroke-width="1" stroke-linecap="round" stroke-linejoin="round"/><path d="M122.98166,189.22595l50.99963,-29.22179" fill="none" stroke-width="1" stroke-linecap="round" stroke-linejoin="round"/><path d="M173.98129,160.00417l58.77591,0.1938" fill="none" stroke-width="1" stroke-linecap="round" stroke-linejoin="round"/><path d="M232.7572,160.19797l50.80422,29.55481" fill="none" stroke-width="1" stroke-linecap="round" stroke-linejoin="round"/><path d="M312.78368,240.75195l-29.22225,-50.99917" fill="none" stroke-width="1" stroke-linecap="round" stroke-linejoin="round"/><path d="M312.78366,240.75195l-0.19494,58.77706" fill="none" stroke-width="1" stroke-linecap="round" stroke-linejoin="round"/><path d="M312.58872,299.52901l-29.55481,50.80422" fill="none" stroke-width="1" stroke-linecap="round" stroke-linejoin="round"/><path d="M232.03475,379.55548l50.99917,-29.22225" fill="none" stroke-width="1" stroke-linecap="round" stroke-linejoin="round"/><path d="M232.03475,379.55547l-58.77677,-0.19523" fill="none" stroke-width="1" stroke-linecap="round" stroke-linejoin="round"/><path d="M173.25797,379.36024l-50.80422,-29.55481" fill="none" stroke-width="1" stroke-linecap="round" stroke-linejoin="round"/><path d="M122.45376,349.80543l-29.22168,-50.99974" fill="none" stroke-width="1" stroke-linecap="round" stroke-linejoin="round"/><path d="M93.63149,240.26786l108.06843,29.49499l-108.06843,28.68413z" fill="#ff00a5" stroke-width="0" stroke-linecap="butt" stroke-linejoin="miter"/><path d="M173.4756,379.24865l29.49499,-108.06843l28.68413,108.06843z" fill="#d8ff00" stroke-width="0" stroke-linecap="butt" stroke-linejoin="miter"/><path d="M312.45638,299.40453l-108.06843,-29.49499l108.06843,-28.68413z" fill="#b900ff" stroke-width="0" stroke-linecap="butt" stroke-linejoin="miter"/><path d="M312.54776,240.6081l-108.30392,28.61819l79.15513,-78.96854z" fill="#000dff" stroke-width="0" stroke-linecap="butt" stroke-linejoin="miter"/><path d="M93.54011,299.06429l108.30392,-28.61819l-79.15513,78.96854z" fill="#b900ff" stroke-width="0" stroke-linecap="butt" stroke-linejoin="miter"/><path d="M232.27202,379.34003l-28.61819,-108.30392l78.96854,79.15513z" fill="#ff00a5" stroke-width="0" stroke-linecap="butt" stroke-linejoin="miter"/><path d="M173.81584,160.33237l28.61819,108.30392l-78.96854,-79.15513z" fill="#d8ff00" stroke-width="0" stroke-linecap="butt" stroke-linejoin="miter"/><path d="M282.97643,350.18647l-78.80556,-79.61422l107.9185,29.24314z" fill="#ff9e00" stroke-width="0" stroke-linecap="butt" stroke-linejoin="miter"/><path d="M123.11144,189.48593l78.80556,79.61422l-107.9185,-29.24314z" fill="#ff0000" stroke-width="0" stroke-linecap="butt" stroke-linejoin="miter"/><path d="M122.69366,349.76869l79.61422,-78.80556l-29.24314,107.9185z" fill="#ff9e00" stroke-width="0" stroke-linecap="butt" stroke-linejoin="miter"/><path d="M283.3942,189.9037l-79.61422,78.80556l29.24314,-107.9185z" fill="#00ffdd" stroke-width="0" stroke-linecap="butt" stroke-linejoin="miter"/><path d="M232.61227,160.42375l-29.49499,108.06843l-28.68413,-108.06843z" fill="#00ff3b" stroke-width="0" stroke-linecap="butt" stroke-linejoin="miter"/></g></g></svg>