<svg version="1.1" xmlns="http://www.w3.org/2000/svg" xmlns:xlink="http://www.w3.org/1999/xlink" width="141.90566" height="66.04128" viewBox="0,0,141.90566,66.04128"><g transform="translate(-131.52546,-247.81268)"><g stroke-miterlimit="10"><path d="M213.89596,291.2887c-3.284,1.9833 -12.9326,-8.2681 -12.9326,-8.2681c0,0 -11.243,8.4819 -14.1459,5.9705c-2.9054,-2.5113 3.8662,-14.8593 3.8662,-14.8593c0,0 -11.5392,-8.0723 -10.0479,-11.6087c1.4913,-3.5391 15.3255,-0.9144 15.3255,-0.9144c0,0 4.1083,-13.4684 7.9332,-13.1464c3.8301,0.3245 5.6099,14.2952 5.6099,14.2952c0,0 14.0789,-0.255 14.9495,3.4849c0.8783,3.7374 -11.8586,9.7491 -11.8586,9.7491c0,0 4.5925,13.3139 1.3007,15.2972z" fill-opacity="0.50196" fill="#000000" stroke="#000000" stroke-width="1.28786"/><path d="M207.50046,281.519c-1.6536,0.9968 -6.5037,-4.1572 -6.5037,-4.1572c0,0 -5.6485,4.2628 -7.1064,3.0007c-1.4578,-1.2621 1.9421,-7.4644 1.9421,-7.4644c0,0 -5.7953,-4.0594 -5.0484,-5.834c0.7496,-1.7773 7.6988,-0.4585 7.6988,-0.4585c0,0 2.0658,-6.769 3.9898,-6.6041c1.9215,0.1622 2.8127,7.1811 2.8127,7.1811c0,0 7.0781,-0.1263 7.5159,1.7514c0.4431,1.8803 -5.955,4.899 -5.955,4.899c0,0 2.3027,6.6892 0.6542,7.686z" fill="#ffffff" stroke="none" stroke-width="2.57572"/><path d="M165.56262,312.95536c-3.284,1.9833 -12.9326,-8.2681 -12.9326,-8.2681c0,0 -11.243,8.4819 -14.1459,5.9705c-2.9054,-2.5113 3.8662,-14.8593 3.8662,-14.8593c0,0 -11.5392,-8.0723 -10.0479,-11.6087c1.4913,-3.5391 15.3255,-0.9144 15.3255,-0.9144c0,0 4.1083,-13.4684 7.9332,-13.1464c3.8301,0.3245 5.6099,14.2952 5.6099,14.2952c0,0 14.0789,-0.255 14.9495,3.4849c0.8783,3.7374 -11.8586,9.7491 -11.8586,9.7491c0,0 4.5925,13.3139 1.3007,15.2972z" fill="#ffff00" stroke="#000000" stroke-width="1.28786"/><path d="M159.16712,303.18566c-1.6536,0.9968 -6.5037,-4.1572 -6.5037,-4.1572c0,0 -5.6485,4.2628 -7.1064,3.0007c-1.4578,-1.2621 1.9421,-7.4644 1.9421,-7.4644c0,0 -5.7953,-4.0594 -5.0484,-5.834c0.7496,-1.7773 7.6988,-0.4585 7.6988,-0.4585c0,0 2.0658,-6.769 3.9898,-6.6041c1.9215,0.1622 2.8127,7.1811 2.8127,7.1811c0,0 7.0781,-0.1263 7.5159,1.7514c0.4431,1.8803 -5.955,4.899 -5.955,4.899c0,0 2.3027,6.6892 0.6542,7.686z" fill="#ffffff" stroke="none" stroke-width="2.57572"/><path d="M262.22929,312.95536c-3.284,1.9833 -12.9326,-8.2681 -12.9326,-8.2681c0,0 -11.243,8.4819 -14.1459,5.9705c-2.9054,-2.5113 3.8662,-14.8593 3.8662,-14.8593c0,0 -11.5392,-8.0723 -10.0479,-11.6087c1.4913,-3.5391 15.3255,-0.9144 15.3255,-0.9144c0,0 4.1083,-13.4684 7.9332,-13.1464c3.8301,0.3245 5.6099,14.2952 5.6099,14.2952c0,0 14.0789,-0.255 14.9495,3.4849c0.8783,3.7374 -11.8586,9.7491 -11.8586,9.7491c0,0 4.5925,13.3139 1.3007,15.2972z" fill-opacity="0.50196" fill="#000000" stroke="#000000" stroke-width="1.28786"/><path d="M207.98706,282.46162c-1.73289,1.04654 -6.82423,-4.36288 -6.82423,-4.36288c0,0 -5.93267,4.4757 -7.46446,3.15049c-1.53311,-1.32515 2.04011,-7.8409 2.04011,-7.8409c0,0 -6.08897,-4.25957 -5.30205,-6.12565c0.78692,-1.8675 8.08691,-0.48251 8.08691,-0.48251c0,0 2.16785,-7.10696 4.18616,-6.93705c2.02105,0.17123 2.96022,7.54325 2.96022,7.54325c0,0 7.42911,-0.13456 7.88851,1.8389c0.46346,1.97214 -6.25751,5.14438 -6.25751,5.14438c0,0 2.42335,7.02544 0.68634,8.07198z" fill="#ffff00" stroke="#000000" stroke-width="1.28786"/><path d="M204.6123,277.30638c-0.87257,0.52599 -3.43185,-2.19366 -3.43185,-2.19366c0,0 -2.98059,2.24938 -3.74989,1.5834c-0.76925,-0.66598 1.0248,-3.93879 1.0248,-3.93879c0,0 -3.05804,-2.14205 -2.66392,-3.07846c0.39554,-0.93784 4.06248,-0.24194 4.06248,-0.24194c0,0 1.09007,-3.57184 2.10532,-3.48483c1.01393,0.08559 1.4842,3.7893 1.4842,3.7893c0,0 3.73495,-0.06665 3.96597,0.92417c0.23381,0.99219 -3.14231,2.58509 -3.14231,2.58509c0,0 1.21508,3.52974 0.3452,4.05572z" fill="#ffffff" stroke="none" stroke-width="2.57572"/></g></g></svg>