<svg version="1.1" xmlns="http://www.w3.org/2000/svg" xmlns:xlink="http://www.w3.org/1999/xlink" width="141.90566" height="66.04128" viewBox="0,0,141.90566,66.04128"><g transform="translate(-131.52546,-247.81269)"><g fill-opacity="0.50196" fill="#000000" stroke="#000000" stroke-width="1.28786" stroke-miterlimit="10"><path d="M213.89596,291.28871c-3.284,1.9833 -12.9326,-8.2681 -12.9326,-8.2681c0,0 -11.243,8.4819 -14.1459,5.9705c-2.9054,-2.5113 3.8662,-14.8593 3.8662,-14.8593c0,0 -11.5392,-8.0723 -10.0479,-11.6087c1.4913,-3.5391 15.3255,-0.9144 15.3255,-0.9144c0,0 4.1083,-13.4684 7.9332,-13.1464c3.8301,0.3245 5.6099,14.2952 5.6099,14.2952c0,0 14.0789,-0.255 14.9495,3.4849c0.8783,3.7374 -11.8586,9.7491 -11.8586,9.7491c0,0 4.5925,13.3139 1.3007,15.2972z"/><path d="M165.56262,312.95536c-3.284,1.9833 -12.9326,-8.2681 -12.9326,-8.2681c0,0 -11.243,8.4819 -14.1459,5.9705c-2.9054,-2.5113 3.8662,-14.8593 3.8662,-14.8593c0,0 -11.5392,-8.0723 -10.0479,-11.6087c1.4913,-3.5391 15.3255,-0.9144 15.3255,-0.9144c0,0 4.1083,-13.4684 7.9332,-13.1464c3.8301,0.3245 5.6099,14.2952 5.6099,14.2952c0,0 14.0789,-0.255 14.9495,3.4849c0.8783,3.7374 -11.8586,9.7491 -11.8586,9.7491c0,0 4.5925,13.3139 1.3007,15.2972z"/><path d="M262.22929,312.95536c-3.284,1.9833 -12.9326,-8.2681 -12.9326,-8.2681c0,0 -11.243,8.4819 -14.1459,5.9705c-2.9054,-2.5113 3.8662,-14.8593 3.8662,-14.8593c0,0 -11.5392,-8.0723 -10.0479,-11.6087c1.4913,-3.5391 15.3255,-0.9144 15.3255,-0.9144c0,0 4.1083,-13.4684 7.9332,-13.1464c3.8301,0.3245 5.6099,14.2952 5.6099,14.2952c0,0 14.0789,-0.255 14.9495,3.4849c0.8783,3.7374 -11.8586,9.7491 -11.8586,9.7491c0,0 4.5925,13.3139 1.3007,15.2972z"/></g></g></svg>