<svg version="1.1" xmlns="http://www.w3.org/2000/svg" xmlns:xlink="http://www.w3.org/1999/xlink" width="221.66667" height="154.33333" viewBox="0,0,221.66667,154.33333"><g transform="translate(-91.66667,-192.83334)"><g stroke-miterlimit="10"><path d="M101.66667,347.16667c-5.52285,0 -10,-4.47715 -10,-10v-134.33333c0,-5.52285 4.47715,-10 10,-10h201.66667c5.52285,0 10,4.47715 10,10v134.33333c0,5.52285 -4.47715,10 -10,10z" fill="#0086ff" stroke="none" stroke-width="0"/><g fill-opacity="0.50196" fill="#000000" stroke="#000000" stroke-width="1.28786"><path d="M213.89596,245.12204c-3.284,1.9833 -12.9326,-8.2681 -12.9326,-8.2681c0,0 -11.243,8.4819 -14.1459,5.9705c-2.9054,-2.5113 3.8662,-14.8593 3.8662,-14.8593c0,0 -11.5392,-8.0723 -10.0479,-11.6087c1.4913,-3.5391 15.3255,-0.9144 15.3255,-0.9144c0,0 4.1083,-13.4684 7.9332,-13.1464c3.8301,0.3245 5.6099,14.2952 5.6099,14.2952c0,0 14.0789,-0.255 14.9495,3.4849c0.8783,3.7374 -11.8586,9.7491 -11.8586,9.7491c0,0 4.5925,13.3139 1.3007,15.2972z"/><path d="M165.56262,266.78869c-3.284,1.9833 -12.9326,-8.2681 -12.9326,-8.2681c0,0 -11.243,8.4819 -14.1459,5.9705c-2.9054,-2.5113 3.8662,-14.8593 3.8662,-14.8593c0,0 -11.5392,-8.0723 -10.0479,-11.6087c1.4913,-3.5391 15.3255,-0.9144 15.3255,-0.9144c0,0 4.1083,-13.4684 7.9332,-13.1464c3.8301,0.3245 5.6099,14.2952 5.6099,14.2952c0,0 14.0789,-0.255 14.9495,3.4849c0.8783,3.7374 -11.8586,9.7491 -11.8586,9.7491c0,0 4.5925,13.3139 1.3007,15.2972z"/><path d="M262.22929,266.78869c-3.284,1.9833 -12.9326,-8.2681 -12.9326,-8.2681c0,0 -11.243,8.4819 -14.1459,5.9705c-2.9054,-2.5113 3.8662,-14.8593 3.8662,-14.8593c0,0 -11.5392,-8.0723 -10.0479,-11.6087c1.4913,-3.5391 15.3255,-0.9144 15.3255,-0.9144c0,0 4.1083,-13.4684 7.9332,-13.1464c3.8301,0.3245 5.6099,14.2952 5.6099,14.2952c0,0 14.0789,-0.255 14.9495,3.4849c0.8783,3.7374 -11.8586,9.7491 -11.8586,9.7491c0,0 4.5925,13.3139 1.3007,15.2972z"/></g><text transform="translate(132.638,314.431) scale(0.90448,0.90448)" font-size="40" xml:space="preserve" fill="#ffffff" stroke="none" stroke-width="1" font-family="Sans Serif" font-weight="normal" text-anchor="start"><tspan x="0" dy="0">Level 14</tspan></text></g></g></svg>