<svg version="1.1" xmlns="http://www.w3.org/2000/svg" xmlns:xlink="http://www.w3.org/1999/xlink" width="199.30348" height="40.0025" viewBox="0,0,199.30348,40.0025"><g transform="translate(-182.49447,-249.99875)"><g stroke-miterlimit="10"><path d="M182.49447,290.00125v-40.0025h199.30348v40.0025z" fill="#5d391b" stroke="none" stroke-width="0" stroke-linecap="butt"/><path d="M184.47708,288.49367v-36.98733h195.33825v36.98733z" fill="#2c1b0d" stroke="#000000" stroke-width="0.5" stroke-linecap="butt"/><path d="M184.53889,288.35716v-29.95321h8.33462v29.95321z" fill="#b4178e" stroke="#000000" stroke-width="0.5" stroke-linecap="butt"/><path d="M315.3325,288.34428v-29.95321h8.33462v29.95321z" fill="#b4178e" stroke="#000000" stroke-width="0.5" stroke-linecap="butt"/><path d="M231.37347,288.34772v-33.43443h9.34261v33.43443z" fill="#b4178e" stroke="#000000" stroke-width="0.5" stroke-linecap="butt"/><path d="M272.60385,288.48534v-34.46864h11.2245v34.46864z" fill="#b4178e" stroke="#000000" stroke-width="0.5" stroke-linecap="butt"/><path d="M371.48434,288.19307v-32.39879h8.33462v32.39879z" fill="#b4178e" stroke="#000000" stroke-width="0.5" stroke-linecap="butt"/><path d="M301.39537,288.40152v-29.95321h4.84093v29.95321z" fill="#3c18b5" stroke="#000000" stroke-width="0.5" stroke-linecap="butt"/><path d="M306.46879,288.1281v-35.80134h8.56247v35.80134z" fill="#cbd400" stroke="#000000" stroke-width="0.5" stroke-linecap="butt"/><path d="M367.59533,288.15633v-35.13678h3.77764v35.13678z" fill="#3c18b5" stroke="#000000" stroke-width="0.5" stroke-linecap="butt"/><path d="M323.85058,288.18587v-26.86669h3.77764v26.86669z" fill="#b5b5b5" stroke="#000000" stroke-width="0.5" stroke-linecap="butt"/><path d="M347.41932,288.29944v-31.34272h8.95218v31.34273z" fill="#db971d" stroke="#000000" stroke-width="0.5" stroke-linecap="butt"/><path d="M332.8594,288.40671v-35.20253h4.62922v35.20253z" fill="#b61d1d" stroke="#000000" stroke-width="0.5" stroke-linecap="butt"/><path d="M337.75978,288.2122v-27.32855h4.01165v27.32855z" fill="#31760a" stroke="#000000" stroke-width="0.5" stroke-linecap="butt"/><path d="M341.99554,288.27937v-33.04104h5.09238v33.04104z" fill="#2a4e45" stroke="#000000" stroke-width="0.5" stroke-linecap="butt"/><path d="M356.62393,288.30554v-35.28934h6.50631v35.28935z" fill="#ad40aa" stroke="#000000" stroke-width="0.5" stroke-linecap="butt"/><path d="M359.71064,258.79645l-0.15439,25.93779" fill="none" stroke="#521f86" stroke-width="1.5" stroke-linecap="round"/><path d="M351.60976,281.47458l0.30879,-14.6672" fill="none" stroke="#5c2424" stroke-width="1.5" stroke-linecap="round"/><path d="M335.0601,285.78752v-28.44622" fill="none" stroke="#000000" stroke-width="1" stroke-linecap="round"/><path d="M339.77867,270.14882v8.89788" fill="none" stroke="#2785a2" stroke-width="1" stroke-linecap="round"/><path d="M344.28068,263.94728l0.25447,20.35724" fill="none" stroke="#b1b1b1" stroke-width="1" stroke-linecap="round"/><path d="M225.06317,288.33684v-35.35691h6.17313v35.35691z" fill="#2d107a" stroke="#000000" stroke-width="0.5" stroke-linecap="butt"/><path d="M199.96449,288.24962v-29.95321h8.33462v29.95321z" fill="#e3cc1e" stroke="#000000" stroke-width="0.5" stroke-linecap="butt"/><path d="M208.80454,288.363v-35.05222h3.90967v35.05222z" fill="#d60000" stroke="#000000" stroke-width="0.5" stroke-linecap="butt"/><path d="M213.04249,288.28684v-27.63733h5.25784v27.63733z" fill="#569ee2" stroke="#000000" stroke-width="0.5" stroke-linecap="butt"/><path d="M218.48961,288.31451v-30.64859h6.34869v30.64859z" fill="#13518f" stroke="#000000" stroke-width="0.5" stroke-linecap="butt"/><path d="M204.01171,283.50344l0.13482,-18.06537" fill="none" stroke="#00589e" stroke-width="1.5" stroke-linecap="round"/><path d="M221.67264,281.61601v-16.44758" fill="none" stroke="#71591a" stroke-width="1.5" stroke-linecap="round"/><path d="M228.27864,258.69725v25.61508" fill="none" stroke="#bd00ff" stroke-width="1.5" stroke-linecap="round"/><path d="M210.735,259.35426l-0.13482,23.72766" fill="none" stroke="#b96033" stroke-width="1" stroke-linecap="round"/><path d="M215.45357,280.78633l-0.13482,-11.32456" fill="none" stroke="#ffffff" stroke-width="1" stroke-linecap="round"/><path d="M284.15207,288.52672v-31.71131h6.17313v31.71131z" fill="#3c3c3c" stroke="#000000" stroke-width="0.5" stroke-linecap="butt"/><path d="M287.21563,260.25422v25.61508" fill="none" stroke="#0dcc00" stroke-width="1.5" stroke-linecap="round"/><path d="M250.88609,288.37482v-35.20501h3.28703v35.20501z" fill="#5e1e1e" stroke="#000000" stroke-width="0.5" stroke-linecap="butt"/><path d="M254.51269,288.26089v-31.71131h9.62884v31.71131z" fill="#1d751b" stroke="#000000" stroke-width="0.5" stroke-linecap="butt"/><path d="M264.34818,288.3938v-26.92648h6.17313v26.92648z" fill="#4786cd" stroke="#000000" stroke-width="0.5" stroke-linecap="butt"/><path d="M276.58945,256.94293l-0.13291,28.57609" fill="none" stroke="#d600ff" stroke-width="1.5" stroke-linecap="round"/><path d="M280.04516,285.68992l-0.13291,-25.65202" fill="none" stroke="#d600ff" stroke-width="1.5" stroke-linecap="round"/><path d="M267.64637,283.86712l-0.13291,-16.74692" fill="none" stroke="#a9a300" stroke-width="1.5" stroke-linecap="round"/><path d="M259.40583,284.74054v-23.52543" fill="none" stroke="#2f4ea0" stroke-width="1.5" stroke-linecap="round"/><path d="M375.41887,284.89244v-25.3862" fill="none" stroke="#000000" stroke-width="1.5" stroke-linecap="round"/><path d="M309.1529,284.89244l0.13291,-25.12038" fill="none" stroke="#0038d2" stroke-width="1.5" stroke-linecap="round"/><path d="M312.20988,284.538l0.26582,-26.98114" fill="none" stroke="#003ad2" stroke-width="1.5" stroke-linecap="round"/><path d="M319.38713,267.21514v13.15829" fill="none" stroke="#000000" stroke-width="1.5" stroke-linecap="round"/><path d="M188.25991,283.37345v-16.74692" fill="none" stroke="#ff79ee" stroke-width="1.5" stroke-linecap="round"/><path d="M235.84241,282.00635l0.13291,-17.6773" fill="none" stroke="#ffffff" stroke-width="1.5" stroke-linecap="round"/><path d="M325.91255,283.88931v-18.87351" fill="none" stroke="#000000" stroke-width="1" stroke-linecap="round"/><path d="M303.84916,278.57283v-8.37346" fill="none" stroke="#000000" stroke-width="1" stroke-linecap="round"/><path d="M252.54511,283.7564v-23.12669" fill="none" stroke="#000000" stroke-width="1" stroke-linecap="round"/></g></g></svg>