<svg version="1.1" xmlns="http://www.w3.org/2000/svg" xmlns:xlink="http://www.w3.org/1999/xlink" width="51" height="51" viewBox="0,0,51,51"><g transform="translate(-177,-244.5)"><g stroke-miterlimit="10"><path d="M178,270c0,-13.53098 10.96902,-24.5 24.5,-24.5c13.53098,0 24.5,10.96902 24.5,24.5c0,13.53098 -10.96902,24.5 -24.5,24.5c-13.53098,0 -24.5,-10.96902 -24.5,-24.5z" fill="#ffb900" stroke="#000000" stroke-width="2"/><path d="M189.71909,269.57461c0,-2.21981 0.57863,-4.40651 1.67286,-6.32384c0.49279,-0.86347 1.5907,-1.16402 2.45391,-0.67123c0.86297,0.49229 1.1631,1.5907 0.67073,2.45366c-0.7854,1.37565 -1.19996,2.94628 -1.19996,4.5415c0,5.06396 4.11975,9.18337 9.18396,9.18337c5.06345,0 9.18295,-4.11891 9.18295,-9.18337c0,-1.84963 -0.56868,-3.63131 -1.58602,-5.13675l-0.63187,1.41785c-0.34886,0.7834 -1.17196,0.67324 -1.83943,-0.24547l-3.90662,-5.38198c-0.6668,-0.91888 -0.29169,-1.75936 0.83756,-1.87729l6.61328,-0.6928c1.12917,-0.11768 1.7144,0.52672 1.30786,1.43992c-0.40754,0.9132 -0.73668,1.65347 -0.73668,1.65347c2.25951,2.36808 3.53929,5.52365 3.53929,8.82306c0,7.04731 -5.73301,12.78091 -12.78041,12.78091c-7.04765,0 -12.78141,-5.7336 -12.78141,-12.781z" fill="#000000" stroke="none" stroke-width="1"/></g></g></svg>