<svg version="1.1" xmlns="http://www.w3.org/2000/svg" xmlns:xlink="http://www.w3.org/1999/xlink" width="158.92524" height="40.08469" viewBox="0,0,158.92524,40.08469"><g transform="translate(-182.45704,-249.95765)"><g stroke-miterlimit="10"><path d="M182.45704,290.04235v-40.08469h158.92524v40.08469z" fill="#5d391b" stroke="none" stroke-width="0" stroke-linecap="butt"/><path d="M184.01844,288.53166v-37.06332h155.80247v37.06332z" fill="#2c1b0d" stroke="#000000" stroke-width="0.5" stroke-linecap="butt"/><path d="M211.05119,288.45339v-34.58387h4.72828v34.58387z" fill="#142a9b" stroke="#000000" stroke-width="0.5" stroke-linecap="butt"/><path d="M246.20993,288.35712v-27.69411h10.67237v27.69411z" fill="#142a9b" stroke="#000000" stroke-width="0.5" stroke-linecap="butt"/><path d="M323.94108,288.42442v-34.65601h15.62305v34.65601z" fill="#142a9b" stroke="#000000" stroke-width="0.5" stroke-linecap="butt"/><path d="M282.23699,288.33701v-31.40712h8.97057v31.40713z" fill="#142a9b" stroke="#000000" stroke-width="0.5" stroke-linecap="butt"/><path d="M267.64716,288.44452v-35.27486h4.63873v35.27486z" fill="#e3e3e3" stroke="#000000" stroke-width="0.5" stroke-linecap="butt"/><path d="M215.88698,288.35712v-27.53941h10.36295v27.53941z" fill="#802b2b" stroke="#000000" stroke-width="0.5" stroke-linecap="butt"/><path d="M226.47449,288.42441v-30.63358h7.88762v30.63359z" fill="#4ea0ba" stroke="#000000" stroke-width="0.5" stroke-linecap="butt"/><path d="M234.43194,288.33701v-34.03717h11.60062v34.03717z" fill="#e7c900" stroke="#000000" stroke-width="0.5" stroke-linecap="butt"/><path d="M272.55763,288.2496v-27.3847h4.01989v27.3847z" fill="#31760a" stroke="#000000" stroke-width="0.5" stroke-linecap="butt"/><path d="M276.80207,288.3169v-33.10893h5.10285v33.10893z" fill="#ab0000" stroke="#000000" stroke-width="0.5" stroke-linecap="butt"/><path d="M315.85601,288.2295v-30.63358h7.8876v30.63359z" fill="#7c7c7c" stroke="#000000" stroke-width="0.5" stroke-linecap="butt"/><path d="M291.46052,288.34312v-35.36184h6.51968v35.36186z" fill="#ad40aa" stroke="#000000" stroke-width="0.5" stroke-linecap="butt"/><path d="M310.45556,288.37895v-32.55186h4.89031v32.55186z" fill="#9d0000" stroke="#000000" stroke-width="0.5" stroke-linecap="butt"/><path d="M304.63302,288.07143v-29.43467h5.72955v29.43467z" fill="#2e7100" stroke="#000000" stroke-width="0.5" stroke-linecap="butt"/><path d="M327.48121,256.14336v30.16823" fill="none" stroke="#ffde00" stroke-width="1.5" stroke-linecap="round"/><path d="M331.89041,286.3116v-21.34983" fill="none" stroke="#ffde00" stroke-width="1.5" stroke-linecap="round"/><path d="M335.99019,286.00218v-27.22876" fill="none" stroke="#ffde00" stroke-width="1.5" stroke-linecap="round"/><path d="M319.90047,285.69275l-0.15471,-22.58749" fill="none" stroke="#f12727" stroke-width="1.5" stroke-linecap="round"/><path d="M294.55356,258.77342l-0.15471,25.99109" fill="none" stroke="#521f86" stroke-width="1.5" stroke-linecap="round"/><path d="M286.19928,280.43265l0.30943,-14.69734" fill="none" stroke="#485d24" stroke-width="1.5" stroke-linecap="round"/><path d="M238.51224,260.93933l0.15471,21.50454" fill="none" stroke="#11a5a5" stroke-width="1.5" stroke-linecap="round"/><path d="M242.07054,282.44387l-0.30941,-15.93501" fill="none" stroke="#10a5a5" stroke-width="1.5" stroke-linecap="round"/><path d="M251.35309,284.91922l-0.15471,-19.49331" fill="none" stroke="#6c0092" stroke-width="1.5" stroke-linecap="round"/><path d="M230.31266,260.62991l0.15472,25.37226" fill="none" stroke="#0e1c77" stroke-width="1.5" stroke-linecap="round"/><path d="M221.03014,281.51562v-12.0673" fill="none" stroke="#9a9a9a" stroke-width="1.5" stroke-linecap="round"/><path d="M213.48875,284.60409v-25.53262" fill="none" stroke="#000000" stroke-width="1" stroke-linecap="round"/><path d="M269.85238,285.81993v-28.50466" fill="none" stroke="#000000" stroke-width="1" stroke-linecap="round"/><path d="M274.58064,270.1491v8.91616" fill="none" stroke="#2785a2" stroke-width="1" stroke-linecap="round"/><path d="M279.0919,263.93483l0.25499,20.39907" fill="none" stroke="#b1b1b1" stroke-width="1" stroke-linecap="round"/><path d="M307.24649,285.14446l0.13509,-21.75" fill="none" stroke="#000000" stroke-width="1" stroke-linecap="round"/><path d="M313.04017,280.55128l-0.13788,-13.37422" fill="none" stroke="#987c1d" stroke-width="1" stroke-linecap="round"/><g><path d="M184.03719,288.39462v-27.69411h10.67237v27.69411z" fill="#142a9b" stroke="#000000" stroke-width="0.5" stroke-linecap="butt"/><path d="M194.88642,288.2225v-30.63358h7.88761v30.63359z" fill="#e3e3e3" stroke="#000000" stroke-width="0.5" stroke-linecap="butt"/><path d="M198.90204,285.07392l-0.30942,-22.27808" fill="none" stroke="#000000" stroke-width="1.5" stroke-linecap="round"/><path d="M189.15538,285.53804l-0.15471,-20.26686" fill="none" stroke="#ffffff" stroke-width="1.5" stroke-linecap="round"/></g></g></g></svg>