<svg version="1.1" xmlns="http://www.w3.org/2000/svg" xmlns:xlink="http://www.w3.org/1999/xlink" width="365.94139" height="526.99817" viewBox="0,0,365.94139,526.99817"><defs><radialGradient cx="354.40476" cy="94.03849" r="32.53663" gradientUnits="userSpaceOnUse" id="color-1"><stop offset="0" stop-color="#000000"/><stop offset="1" stop-color="#000000" stop-opacity="0"/></radialGradient></defs><g transform="translate(-21,-61.50184)"><g stroke-miterlimit="10"><path d="M32.5,587.00001c-5.52285,0 -10,-4.47715 -10,-10v-502c0,-5.52285 4.47715,-10 10,-10h340c5.52285,0 10,4.47715 10,10v502c0,5.52285 -4.47715,10 -10,10z" fill="#0086ff" stroke="#000000" stroke-width="3" stroke-linecap="butt"/><g stroke="#b9b9b9" stroke-linecap="butt"><path d="M337.85104,126.57511c-8.82711,0 -15.98291,-7.15579 -15.98291,-15.98291v-33.10744c0,-8.82711 7.1558,-15.98291 15.98291,-15.98291h33.10744c8.82711,0 15.98291,7.15579 15.98291,15.98291v33.10745c0,8.82711 -7.1558,15.98291 -15.98291,15.98291z" fill="url(#color-1)" stroke-width="0"/><path d="M344.04762,114.39563c-5.52285,0 -10,-4.47715 -10,-10v-20.71429c0,-5.52285 4.47715,-10 10,-10h20.71429c5.52285,0 10,4.47715 10,10v20.71429c0,5.52285 -4.47715,10 -10,10z" fill="#000000" stroke-width="0"/><text transform="translate(345.5257,104.66993) scale(0.72817,0.72817)" font-size="40" xml:space="preserve" fill="#f5f5f5" stroke-width="1" font-family="Sans Serif" font-weight="normal" text-anchor="start"><tspan x="0" dy="0">X</tspan></text></g><path d="M80.77008,507.86409c-5.52285,0 -10,-4.47715 -10,-10v-99.15269c0,-5.52285 4.47715,-10 10,-10h243.45984c5.52285,0 10,4.47715 10,10v99.1527c0,5.52285 -4.47715,10 -10,10z" fill="#8a8a8a" stroke="none" stroke-width="NaN" stroke-linecap="butt"/><path d="M246.63063,494.18359l-88.26126,-88.26125" fill="none" stroke="#000000" stroke-width="3" stroke-linecap="round"/></g></g></svg>