<svg version="1.1" xmlns="http://www.w3.org/2000/svg" xmlns:xlink="http://www.w3.org/1999/xlink" width="365.9414" height="526.99816" viewBox="0,0,365.9414,526.99816"><defs><radialGradient cx="354.40476" cy="94.0385" r="32.53663" gradientUnits="userSpaceOnUse" id="color-1"><stop offset="0" stop-color="#000000"/><stop offset="1" stop-color="#000000" stop-opacity="0"/></radialGradient><radialGradient cx="202.5" cy="475.64874" r="67.29921" gradientUnits="userSpaceOnUse" id="color-2"><stop offset="0" stop-color="#ffbb66"/><stop offset="1" stop-color="#ffbb66" stop-opacity="0"/></radialGradient><linearGradient x1="202.5" y1="388.71143" x2="202.5" y2="507.86413" gradientUnits="userSpaceOnUse" id="color-3"><stop offset="0" stop-color="#ff0000"/><stop offset="1" stop-color="#cc00ff"/></linearGradient></defs><g transform="translate(-21,-61.50186)"><g stroke-miterlimit="10"><path d="M32.5,587.00002c-5.52285,0 -10,-4.47715 -10,-10v-502c0,-5.52285 4.47715,-10 10,-10h340c5.52285,0 10,4.47715 10,10v502c0,5.52285 -4.47715,10 -10,10z" fill="#0086ff" stroke="#000000" stroke-width="3"/><g stroke="#b9b9b9"><path d="M337.85104,126.57513c-8.82711,0 -15.98291,-7.15579 -15.98291,-15.98291v-33.10745c0,-8.82711 7.15579,-15.98291 15.98291,-15.98291h33.10745c8.82711,0 15.98291,7.15579 15.98291,15.98291v33.10745c0,8.82711 -7.15579,15.98291 -15.98291,15.98291z" fill="url(#color-1)" stroke-width="0"/><path d="M344.04762,114.39564c-5.52285,0 -10,-4.47715 -10,-10v-20.71429c0,-5.52285 4.47715,-10 10,-10h20.71429c5.52285,0 10,4.47715 10,10v20.71429c0,5.52285 -4.47715,10 -10,10z" fill="#000000" stroke-width="0"/><text transform="translate(345.52569,104.66995) scale(0.72817,0.72817)" font-size="40" xml:space="preserve" fill="#f5f5f5" stroke-width="1" font-family="Sans Serif" font-weight="normal" text-anchor="start"><tspan x="0" dy="0">X</tspan></text></g><path d="M135.20079,475.64874c0,-37.16832 30.13088,-67.29921 67.29921,-67.29921c37.16832,0 67.29921,30.13088 67.29921,67.29921c0,37.16832 -30.13088,67.29921 -67.29921,67.29921c-37.16832,0 -67.29921,-30.13088 -67.29921,-67.29921z" fill="url(#color-2)" stroke="none" stroke-width="0"/><path d="M80.77008,507.86412c-5.52285,0 -10,-4.47715 -10,-10v-99.15269c0,-5.52285 4.47715,-10 10,-10h243.45984c5.52285,0 10,4.47715 10,10v99.1527c0,5.52285 -4.47715,10 -10,10z" fill="url(#color-3)" stroke="none" stroke-width="NaN"/><text transform="translate(113.16754,466.66685) scale(1.26499,1.26499)" font-size="40" xml:space="preserve" fill="#000000" stroke="none" stroke-width="1" font-family="Sans Serif" font-weight="normal" text-anchor="start"><tspan x="0" dy="0">Spielen</tspan></text></g></g></svg>