<svg version="1.1" xmlns="http://www.w3.org/2000/svg" xmlns:xlink="http://www.w3.org/1999/xlink" width="167.58439" height="167.5292" viewBox="0,0,167.58439,167.5292"><g transform="translate(-118.70838,-186.23464)"><g stroke="#000000" stroke-miterlimit="10"><path d="M237.0052,352.83808l-33.93539,-82.28725l82.28725,33.93539z" fill="#b900ff" stroke-width="0" stroke-linecap="butt" stroke-linejoin="miter"/><path d="M167.94499,187.07414l33.93539,82.28725l-82.28725,-33.93539z" fill="#d8ff00" stroke-width="0" stroke-linecap="butt" stroke-linejoin="miter"/><path d="M119.59312,304.48622l82.28726,-33.93538l-33.93539,82.28725z" fill="#ff00a5" stroke-width="0" stroke-linecap="butt" stroke-linejoin="miter"/><path d="M285.35706,235.42601l-82.28725,33.93539l33.93538,-82.28726z" fill="#00ffdd" stroke-width="0" stroke-linecap="butt" stroke-linejoin="miter"/><path d="M168.28516,352.97899l34.18994,-82.18182l34.18994,82.18182z" fill="#ff9e00" stroke-width="0" stroke-linecap="butt" stroke-linejoin="miter"/><path d="M236.66503,186.93323l-34.18994,82.18182l-34.18994,-82.18182z" fill="#00ff3b" stroke-width="0" stroke-linecap="butt" stroke-linejoin="miter"/><path d="M119.45221,235.76617l82.18182,34.18994l-82.18182,34.18994z" fill="#ff0000" stroke-width="0" stroke-linecap="butt" stroke-linejoin="miter"/><path d="M285.49797,304.14605l-82.18182,-34.18994l82.18182,-34.18994z" fill="#000dff" stroke-width="0" stroke-linecap="butt" stroke-linejoin="miter"/><path d="M168.01863,186.74415l68.96394,166.51184" fill="none" stroke-width="1" stroke-linecap="round" stroke-linejoin="round"/><path d="M119.20838,304.4976l166.58439,-68.994" fill="none" stroke-width="1" stroke-linecap="round" stroke-linejoin="round"/><path d="M237.01528,186.73464l-69.02899,166.52918" fill="none" stroke-width="1" stroke-linecap="round" stroke-linejoin="round"/><path d="M285.78052,304.47719l-166.55947,-68.95589" fill="none" stroke-width="1" stroke-linecap="round" stroke-linejoin="round"/><g fill="none" stroke-width="1" stroke-linecap="round" stroke-linejoin="round"><path d="M285.78052,304.47719l-48.79793,48.77881"/><path d="M285.79278,235.50361l-0.01226,68.97357"/><path d="M285.79276,235.5036l-48.77751,-48.76896"/><path d="M168.01865,186.74415l68.99662,-0.00952"/><path d="M119.22105,235.52129l48.7976,-48.77714"/><path d="M119.22105,235.52129l-0.01266,68.97631"/><path d="M119.20838,304.4976l48.7779,48.76623"/><path d="M167.98628,353.26382l68.9963,-0.00783"/></g></g></g></svg>