<svg version="1.1" xmlns="http://www.w3.org/2000/svg" xmlns:xlink="http://www.w3.org/1999/xlink" width="365.9414" height="526.99817" viewBox="0,0,365.9414,526.99817"><defs><radialGradient cx="354.40476" cy="94.03853" r="32.53663" gradientUnits="userSpaceOnUse" id="color-1"><stop offset="0" stop-color="#000000"/><stop offset="1" stop-color="#000000" stop-opacity="0"/></radialGradient><radialGradient cx="202.5" cy="475.64877" r="67.29921" gradientUnits="userSpaceOnUse" id="color-2"><stop offset="0" stop-color="#ffbb66"/><stop offset="1" stop-color="#ffbb66" stop-opacity="0"/></radialGradient><radialGradient cx="201.41321" cy="451.487" r="88.24567" gradientTransform="translate(-89.46121,-368.90954) scale(0.79052,0.79052)" gradientUnits="userSpaceOnUse" id="color-3"><stop offset="0" stop-color="#9a9a9a"/><stop offset="1" stop-color="#787878"/></radialGradient></defs><g transform="translate(-21,-61.50188)"><g stroke-miterlimit="10"><g><path d="M64.8961,540.55026v-56.55507h281.77295v56.55507z" fill="#5d391b" stroke="none" stroke-width="0" stroke-linecap="butt"/><path d="M67.6991,538.41886v-52.29226h276.16695v52.29226z" fill="#2c1b0d" stroke="#000000" stroke-width="0.5" stroke-linecap="butt"/><path d="M67.78648,538.22587v-42.3475h11.78339v42.3475z" fill="#b4178e" stroke="#000000" stroke-width="0.5" stroke-linecap="butt"/><path d="M252.70097,538.20766v-42.3475h11.78339v42.3475z" fill="#b4178e" stroke="#000000" stroke-width="0.5" stroke-linecap="butt"/><path d="M134.00067,538.21252v-47.26921h13.20847v47.26921z" fill="#b4178e" stroke="#000000" stroke-width="0.5" stroke-linecap="butt"/><path d="M192.2917,538.40709v-48.73136h15.86907v48.73136z" fill="#b4178e" stroke="#000000" stroke-width="0.5" stroke-linecap="butt"/><path d="M332.08779,537.99388v-45.80503h11.78339v45.80503z" fill="#b4178e" stroke="#000000" stroke-width="0.5" stroke-linecap="butt"/><path d="M232.99681,538.28858v-42.3475h6.84405v42.3475z" fill="#3c18b5" stroke="#000000" stroke-width="0.5" stroke-linecap="butt"/><path d="M240.16956,537.90203v-50.61552h12.10552v50.61552z" fill="#cbd400" stroke="#000000" stroke-width="0.5" stroke-linecap="butt"/><path d="M326.58955,537.94194v-49.67597h5.34079v49.67597z" fill="#3c18b5" stroke="#000000" stroke-width="0.5" stroke-linecap="butt"/><path d="M264.74373,537.9837v-37.98382h5.34079v37.98382z" fill="#b5b5b5" stroke="#000000" stroke-width="0.5" stroke-linecap="butt"/><path d="M298.06494,538.14426v-44.31197h12.65649v44.31199z" fill="#db971d" stroke="#000000" stroke-width="0.5" stroke-linecap="butt"/><path d="M277.48029,538.29592v-49.76893h6.54474v49.76893z" fill="#b61d1d" stroke="#000000" stroke-width="0.5" stroke-linecap="butt"/><path d="M284.40839,538.02093v-38.63679h5.67163v38.63679z" fill="#31760a" stroke="#000000" stroke-width="0.5" stroke-linecap="butt"/><path d="M290.39686,538.11589v-46.71304h7.19955v46.71304z" fill="#2a4e45" stroke="#000000" stroke-width="0.5" stroke-linecap="butt"/><path d="M311.07831,538.15289v-49.89166h9.19855v49.89168z" fill="#ad40aa" stroke="#000000" stroke-width="0.5" stroke-linecap="butt"/><path d="M315.44227,496.43328l-0.21828,36.67055" fill="none" stroke="#521f86" stroke-width="1.5" stroke-linecap="round"/><path d="M303.98934,528.49536l0.43656,-20.73632" fill="none" stroke="#5c2424" stroke-width="1.5" stroke-linecap="round"/><path d="M280.59162,534.59294v-40.21694" fill="none" stroke="#000000" stroke-width="1" stroke-linecap="round"/><path d="M287.26268,512.48313v12.57972" fill="none" stroke="#2785a2" stroke-width="1" stroke-linecap="round"/><path d="M293.62757,503.71546l0.35976,28.78083" fill="none" stroke="#b1b1b1" stroke-width="1" stroke-linecap="round"/><path d="M125.07924,538.19714v-49.98719h8.7275v49.98719z" fill="#2d107a" stroke="#000000" stroke-width="0.5" stroke-linecap="butt"/><path d="M89.59502,538.07383v-42.3475h11.78338v42.3475z" fill="#e3cc1e" stroke="#000000" stroke-width="0.5" stroke-linecap="butt"/><path d="M102.09298,538.23412v-49.55642h5.52745v49.55642z" fill="#d60000" stroke="#000000" stroke-width="0.5" stroke-linecap="butt"/><path d="M108.08454,538.12645v-39.07334h7.43347v39.07334z" fill="#569ee2" stroke="#000000" stroke-width="0.5" stroke-linecap="butt"/><path d="M115.78561,538.16557v-43.33063h8.9757v43.33063z" fill="#13518f" stroke="#000000" stroke-width="0.5" stroke-linecap="butt"/><path d="M95.31693,531.36374l0.19061,-25.54061" fill="none" stroke="#00589e" stroke-width="1.5" stroke-linecap="round"/><path d="M120.28575,528.69531v-23.2534" fill="none" stroke="#71591a" stroke-width="1.5" stroke-linecap="round"/><path d="M129.62523,496.29303v36.2143" fill="none" stroke="#bd00ff" stroke-width="1.5" stroke-linecap="round"/><path d="M104.82224,497.22191l-0.19061,33.54589" fill="none" stroke="#b96033" stroke-width="1" stroke-linecap="round"/><path d="M111.4933,527.52232l-0.19061,-16.01053" fill="none" stroke="#ffffff" stroke-width="1" stroke-linecap="round"/><path d="M208.61844,538.46559v-44.83309h8.7275v44.83309z" fill="#3c3c3c" stroke="#000000" stroke-width="0.5" stroke-linecap="butt"/><path d="M212.94966,498.49426v36.21431" fill="none" stroke="#0dcc00" stroke-width="1.5" stroke-linecap="round"/><path d="M161.58738,538.25084v-49.77244h4.64717v49.77244z" fill="#5e1e1e" stroke="#000000" stroke-width="0.5" stroke-linecap="butt"/><path d="M166.71463,538.08976v-44.83308h13.61314v44.83308z" fill="#1d751b" stroke="#000000" stroke-width="0.5" stroke-linecap="butt"/><path d="M180.61993,538.27767v-38.06834h8.7275v38.06834z" fill="#4786cd" stroke="#000000" stroke-width="0.5" stroke-linecap="butt"/><path d="M197.92649,493.8128l-0.18791,40.40054" fill="none" stroke="#d600ff" stroke-width="1.5" stroke-linecap="round"/><path d="M202.81214,534.45496l-0.18791,-36.26653" fill="none" stroke="#d600ff" stroke-width="1.5" stroke-linecap="round"/><path d="M185.28287,531.8779l-0.18791,-23.6766" fill="none" stroke="#a9a300" stroke-width="1.5" stroke-linecap="round"/><path d="M173.63249,499.85275v33.25998" fill="none" stroke="#2f4ea0" stroke-width="1.5" stroke-linecap="round"/><path d="M337.65038,497.43677v35.89072" fill="none" stroke="#000000" stroke-width="1.5" stroke-linecap="round"/><path d="M243.96432,533.32749l0.18791,-35.5149" fill="none" stroke="#0038d2" stroke-width="1.5" stroke-linecap="round"/><path d="M248.28624,532.82638l0.37582,-38.14562" fill="none" stroke="#003ad2" stroke-width="1.5" stroke-linecap="round"/><path d="M258.43336,508.33553v18.60304" fill="none" stroke="#000000" stroke-width="1.5" stroke-linecap="round"/><path d="M73.04721,507.50336v23.6766" fill="none" stroke="#ff79ee" stroke-width="1.5" stroke-linecap="round"/><path d="M140.3188,529.24717l0.18791,-24.99196" fill="none" stroke="#ffffff" stroke-width="1.5" stroke-linecap="round"/><path d="M267.65891,505.22612v26.68315" fill="none" stroke="#000000" stroke-width="1" stroke-linecap="round"/><path d="M236.46595,524.3929v-11.8383" fill="none" stroke="#000000" stroke-width="1" stroke-linecap="round"/><path d="M163.93289,531.72137v-32.69625" fill="none" stroke="#000000" stroke-width="1" stroke-linecap="round"/></g><g><path d="M53.53246,484.18662v-56.55507h281.77295v56.55507z" fill="#5d391b" stroke="none" stroke-width="0" stroke-linecap="butt"/><path d="M56.33546,482.05522v-52.29226h276.16695v52.29226z" fill="#2c1b0d" stroke="#000000" stroke-width="0.5" stroke-linecap="butt"/><path d="M56.42284,481.86223v-42.3475h11.78339v42.3475z" fill="#b4178e" stroke="#000000" stroke-width="0.5" stroke-linecap="butt"/><path d="M241.33733,481.84402v-42.3475h11.78339v42.3475z" fill="#b4178e" stroke="#000000" stroke-width="0.5" stroke-linecap="butt"/><path d="M122.63703,481.84888v-47.26921h13.20847v47.26921z" fill="#b4178e" stroke="#000000" stroke-width="0.5" stroke-linecap="butt"/><path d="M180.92806,482.04345v-48.73136h15.86907v48.73136z" fill="#b4178e" stroke="#000000" stroke-width="0.5" stroke-linecap="butt"/><path d="M320.72415,481.63024v-45.80503h11.78339v45.80503z" fill="#b4178e" stroke="#000000" stroke-width="0.5" stroke-linecap="butt"/><path d="M221.63317,481.92494v-42.3475h6.84405v42.3475z" fill="#3c18b5" stroke="#000000" stroke-width="0.5" stroke-linecap="butt"/><path d="M228.80592,481.53839v-50.61552h12.10552v50.61552z" fill="#cbd400" stroke="#000000" stroke-width="0.5" stroke-linecap="butt"/><path d="M315.22591,481.5783v-49.67597h5.34079v49.67597z" fill="#3c18b5" stroke="#000000" stroke-width="0.5" stroke-linecap="butt"/><path d="M253.38009,481.62006v-37.98381h5.34079v37.98381z" fill="#b5b5b5" stroke="#000000" stroke-width="0.5" stroke-linecap="butt"/><path d="M286.7013,481.78062v-44.31197h12.65649v44.31198z" fill="#db971d" stroke="#000000" stroke-width="0.5" stroke-linecap="butt"/><path d="M266.11665,481.93228v-49.76893h6.54474v49.76893z" fill="#b61d1d" stroke="#000000" stroke-width="0.5" stroke-linecap="butt"/><path d="M273.04475,481.65729v-38.63679h5.67163v38.63679z" fill="#31760a" stroke="#000000" stroke-width="0.5" stroke-linecap="butt"/><path d="M279.03322,481.75225v-46.71303h7.19955v46.71303z" fill="#2a4e45" stroke="#000000" stroke-width="0.5" stroke-linecap="butt"/><path d="M299.71467,481.78925v-49.89166h9.19855v49.89168z" fill="#ad40aa" stroke="#000000" stroke-width="0.5" stroke-linecap="butt"/><path d="M304.07863,440.06964l-0.21828,36.67055" fill="none" stroke="#521f86" stroke-width="1.5" stroke-linecap="round"/><path d="M292.6257,472.13172l0.43656,-20.73632" fill="none" stroke="#5c2424" stroke-width="1.5" stroke-linecap="round"/><path d="M269.22798,478.2293v-40.21694" fill="none" stroke="#000000" stroke-width="1" stroke-linecap="round"/><path d="M275.89904,456.11949v12.57972" fill="none" stroke="#2785a2" stroke-width="1" stroke-linecap="round"/><path d="M282.26393,447.35182l0.35976,28.78083" fill="none" stroke="#b1b1b1" stroke-width="1" stroke-linecap="round"/><path d="M113.7156,481.8335v-49.98719h8.7275v49.98719z" fill="#2d107a" stroke="#000000" stroke-width="0.5" stroke-linecap="butt"/><path d="M78.23138,481.71019v-42.3475h11.78338v42.3475z" fill="#e3cc1e" stroke="#000000" stroke-width="0.5" stroke-linecap="butt"/><path d="M90.72934,481.87048v-49.55642h5.52745v49.55642z" fill="#d60000" stroke="#000000" stroke-width="0.5" stroke-linecap="butt"/><path d="M96.7209,481.76281v-39.07334h7.43347v39.07334z" fill="#569ee2" stroke="#000000" stroke-width="0.5" stroke-linecap="butt"/><path d="M104.42197,481.80193v-43.33062h8.9757v43.33063z" fill="#13518f" stroke="#000000" stroke-width="0.5" stroke-linecap="butt"/><path d="M83.95329,475.0001l0.19061,-25.54061" fill="none" stroke="#00589e" stroke-width="1.5" stroke-linecap="round"/><path d="M108.92211,472.33167v-23.2534" fill="none" stroke="#71591a" stroke-width="1.5" stroke-linecap="round"/><path d="M118.26159,439.92939v36.2143" fill="none" stroke="#bd00ff" stroke-width="1.5" stroke-linecap="round"/><path d="M93.4586,440.85827l-0.19061,33.54589" fill="none" stroke="#b96033" stroke-width="1" stroke-linecap="round"/><path d="M100.12966,471.15868l-0.19061,-16.01053" fill="none" stroke="#ffffff" stroke-width="1" stroke-linecap="round"/><path d="M197.2548,482.10195v-44.83309h8.7275v44.83309z" fill="#3c3c3c" stroke="#000000" stroke-width="0.5" stroke-linecap="butt"/><path d="M201.58602,442.13062v36.2143" fill="none" stroke="#0dcc00" stroke-width="1.5" stroke-linecap="round"/><path d="M150.22374,481.8872v-49.77244h4.64717v49.77244z" fill="#5e1e1e" stroke="#000000" stroke-width="0.5" stroke-linecap="butt"/><path d="M155.35099,481.72612v-44.83308h13.61314v44.83308z" fill="#1d751b" stroke="#000000" stroke-width="0.5" stroke-linecap="butt"/><path d="M169.25629,481.91403v-38.06834h8.7275v38.06834z" fill="#4786cd" stroke="#000000" stroke-width="0.5" stroke-linecap="butt"/><path d="M186.56285,437.44916l-0.18791,40.40054" fill="none" stroke="#d600ff" stroke-width="1.5" stroke-linecap="round"/><path d="M191.4485,478.09132l-0.18791,-36.26653" fill="none" stroke="#d600ff" stroke-width="1.5" stroke-linecap="round"/><path d="M173.91923,475.51426l-0.18791,-23.6766" fill="none" stroke="#a9a300" stroke-width="1.5" stroke-linecap="round"/><path d="M162.26885,443.48911v33.25998" fill="none" stroke="#2f4ea0" stroke-width="1.5" stroke-linecap="round"/><path d="M326.28674,441.07313v35.89072" fill="none" stroke="#000000" stroke-width="1.5" stroke-linecap="round"/><path d="M232.60068,476.96385l0.18791,-35.5149" fill="none" stroke="#0038d2" stroke-width="1.5" stroke-linecap="round"/><path d="M236.9226,476.46274l0.37582,-38.14562" fill="none" stroke="#003ad2" stroke-width="1.5" stroke-linecap="round"/><path d="M247.06972,451.97189v18.60303" fill="none" stroke="#000000" stroke-width="1.5" stroke-linecap="round"/><path d="M61.68358,451.13972v23.6766" fill="none" stroke="#ff79ee" stroke-width="1.5" stroke-linecap="round"/><path d="M128.95516,472.88353l0.18791,-24.99196" fill="none" stroke="#ffffff" stroke-width="1.5" stroke-linecap="round"/><path d="M256.29528,448.86248v26.68315" fill="none" stroke="#000000" stroke-width="1" stroke-linecap="round"/><path d="M225.10231,468.02926v-11.8383" fill="none" stroke="#000000" stroke-width="1" stroke-linecap="round"/><path d="M152.56925,475.35773v-32.69624" fill="none" stroke="#000000" stroke-width="1" stroke-linecap="round"/></g><g><path d="M70.35065,429.64117v-56.55507h281.77294v56.55507z" fill="#5d391b" stroke="none" stroke-width="0" stroke-linecap="butt"/><path d="M73.15364,427.50977v-52.29226h276.16695v52.29226z" fill="#2c1b0d" stroke="#000000" stroke-width="0.5" stroke-linecap="butt"/><path d="M73.24102,427.31678v-42.3475h11.78339v42.3475z" fill="#b4178e" stroke="#000000" stroke-width="0.5" stroke-linecap="butt"/><path d="M258.15551,427.29857v-42.3475h11.78339v42.3475z" fill="#b4178e" stroke="#000000" stroke-width="0.5" stroke-linecap="butt"/><path d="M139.45521,427.30343v-47.26921h13.20847v47.26921z" fill="#b4178e" stroke="#000000" stroke-width="0.5" stroke-linecap="butt"/><path d="M197.74624,427.498v-48.73136h15.86907v48.73136z" fill="#b4178e" stroke="#000000" stroke-width="0.5" stroke-linecap="butt"/><path d="M337.54233,427.08479v-45.80503h11.78339v45.80503z" fill="#b4178e" stroke="#000000" stroke-width="0.5" stroke-linecap="butt"/><path d="M238.45136,427.37949v-42.3475h6.84405v42.3475z" fill="#3c18b5" stroke="#000000" stroke-width="0.5" stroke-linecap="butt"/><path d="M245.6241,426.99293v-50.61552h12.10552v50.61552z" fill="#cbd400" stroke="#000000" stroke-width="0.5" stroke-linecap="butt"/><path d="M332.04409,427.03284v-49.67597h5.34078v49.67597z" fill="#3c18b5" stroke="#000000" stroke-width="0.5" stroke-linecap="butt"/><path d="M270.19827,427.07461v-37.98381h5.34078v37.98381z" fill="#b5b5b5" stroke="#000000" stroke-width="0.5" stroke-linecap="butt"/><path d="M303.51948,427.23517v-44.31197h12.65649v44.31199z" fill="#db971d" stroke="#000000" stroke-width="0.5" stroke-linecap="butt"/><path d="M282.93484,427.38683v-49.76893h6.54474v49.76893z" fill="#b61d1d" stroke="#000000" stroke-width="0.5" stroke-linecap="butt"/><path d="M289.86294,427.11183v-38.63679h5.67162v38.63679z" fill="#31760a" stroke="#000000" stroke-width="0.5" stroke-linecap="butt"/><path d="M295.85141,427.2068v-46.71304h7.19955v46.71304z" fill="#2a4e45" stroke="#000000" stroke-width="0.5" stroke-linecap="butt"/><path d="M316.53285,427.2438v-49.89166h9.19855v49.89167z" fill="#ad40aa" stroke="#000000" stroke-width="0.5" stroke-linecap="butt"/><path d="M320.89681,385.52419l-0.21827,36.67055" fill="none" stroke="#521f86" stroke-width="1.5" stroke-linecap="round"/><path d="M309.44388,417.58626l0.43656,-20.73632" fill="none" stroke="#5c2424" stroke-width="1.5" stroke-linecap="round"/><path d="M286.04616,423.68385v-40.21694" fill="none" stroke="#000000" stroke-width="1" stroke-linecap="round"/><path d="M292.71722,401.57404v12.57972" fill="none" stroke="#2785a2" stroke-width="1" stroke-linecap="round"/><path d="M299.08211,392.80637l0.35977,28.78083" fill="none" stroke="#b1b1b1" stroke-width="1" stroke-linecap="round"/><path d="M130.53378,427.28805v-49.98719h8.7275v49.98719z" fill="#2d107a" stroke="#000000" stroke-width="0.5" stroke-linecap="butt"/><path d="M95.04956,427.16474v-42.3475h11.78339v42.3475z" fill="#e3cc1e" stroke="#000000" stroke-width="0.5" stroke-linecap="butt"/><path d="M107.54752,427.32503v-49.55642h5.52745v49.55642z" fill="#d60000" stroke="#000000" stroke-width="0.5" stroke-linecap="butt"/><path d="M113.53908,427.21736v-39.07334h7.43347v39.07334z" fill="#569ee2" stroke="#000000" stroke-width="0.5" stroke-linecap="butt"/><path d="M121.24016,427.25648v-43.33062h8.9757v43.33062z" fill="#13518f" stroke="#000000" stroke-width="0.5" stroke-linecap="butt"/><path d="M100.77147,420.45464l0.19061,-25.54061" fill="none" stroke="#00589e" stroke-width="1.5" stroke-linecap="round"/><path d="M125.74029,417.78622v-23.2534" fill="none" stroke="#71591a" stroke-width="1.5" stroke-linecap="round"/><path d="M135.07977,385.38394v36.2143" fill="none" stroke="#bd00ff" stroke-width="1.5" stroke-linecap="round"/><path d="M110.27678,386.31281l-0.19061,33.54589" fill="none" stroke="#b96033" stroke-width="1" stroke-linecap="round"/><path d="M116.94784,416.61322l-0.19061,-16.01053" fill="none" stroke="#ffffff" stroke-width="1" stroke-linecap="round"/><path d="M214.07298,427.5565v-44.83308h8.7275v44.83308z" fill="#3c3c3c" stroke="#000000" stroke-width="0.5" stroke-linecap="butt"/><path d="M218.40421,387.58517v36.2143" fill="none" stroke="#0dcc00" stroke-width="1.5" stroke-linecap="round"/><path d="M167.04192,427.34174v-49.77243h4.64716v49.77243z" fill="#5e1e1e" stroke="#000000" stroke-width="0.5" stroke-linecap="butt"/><path d="M172.16917,427.18067v-44.83308h13.61314v44.83308z" fill="#1d751b" stroke="#000000" stroke-width="0.5" stroke-linecap="butt"/><path d="M186.07447,427.36858v-38.06834h8.7275v38.06834z" fill="#4786cd" stroke="#000000" stroke-width="0.5" stroke-linecap="butt"/><path d="M203.38104,382.9037l-0.18791,40.40054" fill="none" stroke="#d600ff" stroke-width="1.5" stroke-linecap="round"/><path d="M208.26668,423.54586l-0.18791,-36.26653" fill="none" stroke="#d600ff" stroke-width="1.5" stroke-linecap="round"/><path d="M190.73741,420.96881l-0.18791,-23.6766" fill="none" stroke="#a9a300" stroke-width="1.5" stroke-linecap="round"/><path d="M179.08703,388.94366v33.25998" fill="none" stroke="#2f4ea0" stroke-width="1.5" stroke-linecap="round"/><path d="M343.10492,386.52768v35.89071" fill="none" stroke="#000000" stroke-width="1.5" stroke-linecap="round"/><path d="M249.41886,422.41839l0.18791,-35.5149" fill="none" stroke="#0038d2" stroke-width="1.5" stroke-linecap="round"/><path d="M253.74079,421.91729l0.37581,-38.14562" fill="none" stroke="#003ad2" stroke-width="1.5" stroke-linecap="round"/><path d="M263.8879,397.42643v18.60304" fill="none" stroke="#000000" stroke-width="1.5" stroke-linecap="round"/><path d="M78.50176,396.59426v23.6766" fill="none" stroke="#ff79ee" stroke-width="1.5" stroke-linecap="round"/><path d="M145.77334,418.33807l0.18791,-24.99196" fill="none" stroke="#ffffff" stroke-width="1.5" stroke-linecap="round"/><path d="M273.11346,394.31703v26.68315" fill="none" stroke="#000000" stroke-width="1" stroke-linecap="round"/><path d="M241.9205,413.4838v-11.8383" fill="none" stroke="#000000" stroke-width="1" stroke-linecap="round"/><path d="M169.38743,420.81227v-32.69625" fill="none" stroke="#000000" stroke-width="1" stroke-linecap="round"/></g><path d="M32.5,587.00006c-5.52285,0 -10,-4.47715 -10,-10v-502c0,-5.52285 4.47715,-10 10,-10h340c5.52285,0 10,4.47715 10,10v502c0,5.52285 -4.47715,10 -10,10zM324.22992,507.86417c5.52285,0 10,-4.47715 10,-10v-99.1527c0,-5.52285 -4.47715,-10 -10,-10h-243.45984c-5.52285,0 -10,4.47715 -10,10v99.15269c0,5.52285 4.47715,10 10,10z" fill="#0086ff" stroke="#000000" stroke-width="3" stroke-linecap="butt"/><g stroke="#b9b9b9" stroke-linecap="butt"><path d="M337.85104,126.57515c-8.82711,0 -15.98291,-7.15579 -15.98291,-15.98291v-33.10745c0,-8.82711 7.15579,-15.98291 15.98291,-15.98291h33.10745c8.82711,0 15.98291,7.15579 15.98291,15.98291v33.10745c0,8.82711 -7.15579,15.98291 -15.98291,15.98291z" fill="url(#color-1)" stroke-width="0"/><path d="M344.04762,114.39567c-5.52285,0 -10,-4.47715 -10,-10v-20.71429c0,-5.52285 4.47715,-10 10,-10h20.71429c5.52285,0 10,4.47715 10,10v20.71429c0,5.52285 -4.47715,10 -10,10z" fill="#000000" stroke-width="0"/><text transform="translate(345.52569,104.66998) scale(0.72817,0.72817)" font-size="40" xml:space="preserve" fill="#f5f5f5" stroke-width="1" font-family="Sans Serif" font-weight="normal" text-anchor="start"><tspan x="0" dy="0">X</tspan></text></g><path d="M135.20079,475.64877c0,-37.16832 30.13088,-67.29921 67.29921,-67.29921c37.16832,0 67.29921,30.13088 67.29921,67.29921c0,37.16832 -30.13088,67.29921 -67.29921,67.29921c-37.16832,0 -67.29921,-30.13088 -67.29921,-67.29921z" fill="url(#color-2)" stroke="none" stroke-width="0" stroke-linecap="butt"/><text transform="translate(113.16754,466.66688) scale(1.26499,1.26499)" font-size="40" xml:space="preserve" fill="#000000" stroke="url(#color-3)" stroke-width="1" stroke-linecap="butt" font-family="Sans Serif" font-weight="normal" text-anchor="start"><tspan x="0" dy="0">Spielen</tspan></text></g></g></svg>