<svg version="1.1" xmlns="http://www.w3.org/2000/svg" xmlns:xlink="http://www.w3.org/1999/xlink" width="51" height="51" viewBox="0,0,51,51"><g transform="translate(-177,-244.5)"><g stroke-miterlimit="10"><path d="M178,270c0,-13.53098 10.96902,-24.5 24.5,-24.5c13.53098,0 24.5,10.96902 24.5,24.5c0,13.53098 -10.96902,24.5 -24.5,24.5c-13.53098,0 -24.5,-10.96902 -24.5,-24.5z" fill="#ffb900" stroke="#000000" stroke-width="2"/><path d="M213.39806,270c0,0.76695 -0.5885,1.36226 -1.36226,1.36226h-1.36226v8.17354c0,0.74924 -0.61302,1.36226 -1.36226,1.36226h-4.08677v-6.81129c0,-0.74924 -0.61302,-1.36226 -1.36226,-1.36226h-2.72451c-0.74924,0 -1.36226,0.61302 -1.36226,1.36226v6.81129h-4.08677c-0.74924,0 -1.36226,-0.61302 -1.36226,-1.36226v-8.17354h-1.36226c-0.77376,0 -1.36226,-0.59531 -1.36226,-1.36226c0,-0.59667 0.32422,-0.91952 0.74924,-1.36226l8.78656,-8.77975c0.3719,-0.35146 0.71246,-0.75605 1.36226,-0.75605c0.6498,0 0.99036,0.40459 1.36226,0.75605l2.72451,2.72179v-0.75333c0,-0.74924 0.61302,-1.36226 1.36226,-1.36226h1.36226c0.74924,0 1.36226,0.61302 1.36226,1.36226v4.83737l1.97527,1.97391c0.42502,0.44273 0.74924,0.76559 0.74924,1.36226z" fill="#000000" stroke="none" stroke-width="1"/></g></g></svg>