<svg version="1.1" xmlns="http://www.w3.org/2000/svg" xmlns:xlink="http://www.w3.org/1999/xlink" width="80.28723" height="39.84405" viewBox="0,0,80.28723,39.84405"><g transform="translate(-182.37849,-250.07797)"><g stroke-miterlimit="10"><g><path d="M182.37849,289.92203v-39.84405h80.28723v39.84405z" fill="#5d391b" stroke="none" stroke-width="0" stroke-linecap="butt"/><path d="M183.89575,288.42041v-36.84082h77.25272v36.84082z" fill="#2c1b0d" stroke="#000000" stroke-width="0.5" stroke-linecap="butt"/><path d="M184.06985,288.2842v-27.52785h10.6083v27.52785z" fill="#e3cc1e" stroke="#000000" stroke-width="0.5" stroke-linecap="butt"/><path d="M206.93356,288.33604v-34.91654h4.69182v34.91654z" fill="#e3cc1e" stroke="#000000" stroke-width="0.5" stroke-linecap="butt"/><path d="M254.78873,288.26421v-35.21686h6.14867v35.21686z" fill="#e3cc1e" stroke="#000000" stroke-width="0.5" stroke-linecap="butt"/><path d="M229.78946,288.17733v-29.83456h8.3016v29.83456z" fill="#e3cc1e" stroke="#000000" stroke-width="0.5" stroke-linecap="butt"/><path d="M211.54324,288.22242v-25.97861h10.01128v25.97861z" fill="#5e336c" stroke="#000000" stroke-width="0.5" stroke-linecap="butt"/><path d="M195.16292,288.36614v-31.0192h7.78838v31.0192z" fill="#c81a1a" stroke="#000000" stroke-width="0.5" stroke-linecap="butt"/><path d="M238.5945,288.29026v-34.91338h3.89418v34.91338z" fill="#d7d7d7" stroke="#000000" stroke-width="0.5" stroke-linecap="butt"/><path d="M242.81566,288.2144v-27.52785h5.23701v27.52785z" fill="#296c2c" stroke="#000000" stroke-width="0.5" stroke-linecap="butt"/><path d="M248.2412,287.93937v-30.52719h6.32354v30.52719z" fill="#13518f" stroke="#000000" stroke-width="0.5" stroke-linecap="butt"/><path d="M187.35709,264.55905l-0.11918,21.21267" fill="none" stroke="#006525" stroke-width="1.5" stroke-linecap="round"/><path d="M190.32005,285.73274l0.13428,-11.01114" fill="none" stroke="#00672b" stroke-width="1.5" stroke-linecap="round"/><path d="M199.04839,284.38993l-0.13428,-21.61943" fill="none" stroke="#5a0000" stroke-width="1.5" stroke-linecap="round"/><path d="M216.37078,285.06134v-17.18813" fill="none" stroke="#ba6dc9" stroke-width="1.5" stroke-linecap="round"/><path d="M209.25383,277.81009v-10.74257" fill="none" stroke="#000000" stroke-width="1" stroke-linecap="round"/><path d="M233.82065,283.44995l0.13428,-17.99382" fill="none" stroke="#00589e" stroke-width="1.5" stroke-linecap="round"/><path d="M251.41162,281.57v-16.38243" fill="none" stroke="#71591a" stroke-width="1.5" stroke-linecap="round"/><path d="M257.99145,284.25564v-25.51362" fill="none" stroke="#ff0000" stroke-width="1.5" stroke-linecap="round"/><path d="M240.51731,259.54771l-0.13428,23.63367" fill="none" stroke="#000000" stroke-width="1" stroke-linecap="round"/><path d="M245.08291,272.03596l0.13428,11.27971" fill="none" stroke="#000000" stroke-width="1" stroke-linecap="round"/></g></g></g></svg>