<svg version="1.1" xmlns="http://www.w3.org/2000/svg" xmlns:xlink="http://www.w3.org/1999/xlink" width="119.95166" height="40.04121" viewBox="0,0,119.95166,40.04121"><g transform="translate(-182.13571,-249.9794)"><g stroke-miterlimit="10"><path d="M182.13571,290.02062v-40.04121h119.95166v40.04121z" fill="#5d391b" stroke="none" stroke-width="0" stroke-linecap="butt"/><path d="M183.99937,288.51157v-37.02312h116.22435v37.02312z" fill="#2c1b0d" stroke="#000000" stroke-width="0.5" stroke-linecap="butt"/><path d="M251.17504,288.53701v-34.98969h7.45028v34.98969z" fill="#006b0f" stroke="#000000" stroke-width="0.5" stroke-linecap="butt"/><path d="M227.77027,288.41875v-29.80109h6.74073v29.80109z" fill="#767676" stroke="#000000" stroke-width="0.5" stroke-linecap="butt"/><path d="M234.80666,288.27092v-36.00967h12.94928v36.00967z" fill="#d90000" stroke="#000000" stroke-width="0.5" stroke-linecap="butt"/><path d="M269.04683,288.35962v-29.44632h8.69199v29.44632z" fill="#6d217c" stroke="#000000" stroke-width="0.5" stroke-linecap="butt"/><path d="M262.89739,288.35962v-34.59057h5.32163v34.59057z" fill="#966700" stroke="#000000" stroke-width="0.5" stroke-linecap="butt"/><path d="M222.17666,288.44831v-29.80111h5.32163v29.80111z" fill="#006b0f" stroke="#000000" stroke-width="0.5" stroke-linecap="butt"/><path d="M238.00427,286.22517l-0.15205,-29.95315" fill="none" stroke="#ffffff" stroke-width="1.5" stroke-linecap="round"/><path d="M242.41362,286.07311l-0.15205,-16.87715" fill="none" stroke="#ffffff" stroke-width="1.5" stroke-linecap="round"/><path d="M254.73376,285.92107v-26.30404" fill="none" stroke="#000000" stroke-width="1.5" stroke-linecap="round"/><path d="M273.13139,264.51292l0.30409,20.67832" fill="none" stroke="#000fbf" stroke-width="1.5" stroke-linecap="round"/><path d="M224.53296,284.91756v-22.56369" fill="none" stroke="#000000" stroke-width="1" stroke-linecap="round"/><path d="M230.70604,278.95734v-12.7719" fill="none" stroke="#000000" stroke-width="1" stroke-linecap="round"/><path d="M264.9817,259.79949v25.11807" fill="none" stroke="#000000" stroke-width="1" stroke-linecap="round"/><g><path d="M284.88078,288.44831v-32.63931h15.25533v32.63931z" fill="#006b0f" stroke="#000000" stroke-width="0.5" stroke-linecap="butt"/><path d="M288.26846,260.1948l0.30409,23.11107" fill="none" stroke="#808080" stroke-width="1.5" stroke-linecap="round"/><path d="M294.35032,269.7129v-8.81869" fill="none" stroke="#808080" stroke-width="1.5" stroke-linecap="round"/></g><g><path d="M184.05287,288.53701v-29.80111h13.83623v29.80111z" fill="#006b0f" stroke="#000000" stroke-width="0.5" stroke-linecap="butt"/><path d="M207.29064,288.53701v-35.4775h11.88496v35.4775z" fill="#dadada" stroke="#000000" stroke-width="0.5" stroke-linecap="butt"/><path d="M198.06649,288.53701v-31.2202h8.86938v31.2202z" fill="#180096" stroke="#000000" stroke-width="0.5" stroke-linecap="butt"/><path d="M190.6614,264.02637v20.83037" fill="none" stroke="#0080a9" stroke-width="1.5" stroke-linecap="round"/><path d="M213.22509,255.75504v29.80111" fill="none" stroke="#ff1d1d" stroke-width="1.5" stroke-linecap="round"/><path d="M201.97366,262.90124v9.73098" fill="none" stroke="#ffb900" stroke-width="1.5" stroke-linecap="round"/></g></g></g></svg>